<svg xmlns="http://www.w3.org/2000/svg" viewBox="0 0 6240 4160"><filter id="b"><feGaussianBlur stdDeviation="12" /></filter><path d="M0 0h6240v4160H0z" fill="#4e4439" /><g filter="url(#b)" transform="scale(24.375000) translate(0.5 0.5)"><g transform="translate(20.376639 115.654761) rotate(357.397506) scale(38.696118 124.039444)"><ellipse fill="#000" fill-opacity=".501961" cx="0" cy="0" rx="1" ry="1" /></g><ellipse fill="#997e6a" fill-opacity=".501961" cx="125" cy="27" rx="78" ry="78" /><g transform="translate(169.783849 167.551056) rotate(108.305292) scale(15.825105 67.994938)"><ellipse fill="#fde4bf" fill-opacity=".501961" cx="0" cy="0" rx="1" ry="1" /></g><g transform="translate(190.563585 11.717873) rotate(123.886943) scale(37.232710 14.564679)"><ellipse fill="#c2d8dd" fill-opacity=".501961" cx="0" cy="0" rx="1" ry="1" /></g><g transform="translate(48.566451 58.681154) rotate(85.357476) scale(12.568604 58.071236)"><ellipse fill="#000" fill-opacity=".501961" cx="0" cy="0" rx="1" ry="1" /></g><g transform="translate(236.786680 91.819753) rotate(327.263692) scale(35.091635 69.185463)"><ellipse fill="#0d1416" fill-opacity=".501961" cx="0" cy="0" rx="1" ry="1" /></g><g transform="translate(54.372917 115.656553) rotate(120.151124) scale(28.262078 51.889469)"><ellipse fill="#010400" fill-opacity=".501961" cx="0" cy="0" rx="1" ry="1" /></g><path fill="#e0d1c6" fill-opacity=".501961" d="M127.723442 48.923382 119.116544 5.179181 98.308243 28.941439 87.151965 32.823263z" /></g></svg>