<svg xmlns="http://www.w3.org/2000/svg" viewBox="0 0 6240 4160"><filter id="b"><feGaussianBlur stdDeviation="12" /></filter><path d="M0 0h6240v4160H0z" fill="#7b6e62" /><g filter="url(#b)" transform="scale(24.375000) translate(0.5 0.5)"><g transform="translate(83.649545 15.452362) rotate(146.883708) scale(103.975573 38.129571)"><ellipse fill="#fff" fill-opacity=".501961" cx="0" cy="0" rx="1" ry="1" /></g><path fill="#000" fill-opacity=".501961" d="M85 88 55 177 3 130z" /><ellipse fill="#252f26" fill-opacity=".501961" cx="195" cy="52" rx="51" ry="51" /><path fill="#ffcfb3" fill-opacity=".501961" d="M147 105l55-58-60 20z" /><g transform="translate(119.680865 141.813698) rotate(253.178600) scale(74.845627 43.027843)"><ellipse fill="#6e3919" fill-opacity=".501961" cx="0" cy="0" rx="1" ry="1" /></g><path fill="#e7e3e7" fill-opacity=".501961" d="M11 26 95-16l45 78z" /><ellipse fill="#520e00" fill-opacity=".501961" cx="249" cy="112" rx="12" ry="67" /><g transform="translate(153.508883 37.642839) rotate(387.653903) scale(27.568131 17.401430)"><ellipse fill="#000f09" fill-opacity=".501961" cx="0" cy="0" rx="1" ry="1" /></g></g></svg>