<svg xmlns="http://www.w3.org/2000/svg" viewBox="0 0 6240 4160"><filter id="b"><feGaussianBlur stdDeviation="12" /></filter><path d="M0 0h6240v4160H0z" fill="#625c4d" /><g filter="url(#b)" transform="scale(24.375000) translate(0.5 0.5)"><g transform="translate(144.787502 138.682552) rotate(181.653670) scale(169.273699 58.341666)"><ellipse fill="#c1a387" fill-opacity=".501961" cx="0" cy="0" rx="1" ry="1" /></g><ellipse fill="#000e0b" fill-opacity=".501961" cx="140" cy="22" rx="184" ry="55" /><g transform="translate(237.003181 108.108855) rotate(237.190677) scale(51.776653 12.688878)"><ellipse fill="#ffbbb4" fill-opacity=".501961" cx="0" cy="0" rx="1" ry="1" /></g><g transform="translate(194 126) rotate(180) scale(50 28)"><path d="M0 0h6240v4160H0z" fill="#011d25" /></g><ellipse fill="#ffbdb4" fill-opacity=".501961" cx="133" cy="84" rx="10" ry="34" /><g transform="translate(174.977511 82.602228) rotate(18.907002) scale(20.377517 13.136333)"><ellipse fill="#000302" fill-opacity=".501961" cx="0" cy="0" rx="1" ry="1" /></g><path fill="#b3b6ae" fill-opacity=".501961" d="M165.393312 8.57839 123.751449 22.652004 120.015867-16H151.833307z" /><path fill="#4b4125" fill-opacity=".501961" d="M31 108 0 138l128 4z" /></g></svg>