<svg xmlns="http://www.w3.org/2000/svg" viewBox="0 0 6240 4160"><filter id="b"><feGaussianBlur stdDeviation="12" /></filter><path d="M0 0h6240v4160H0z" fill="#86796d" /><g filter="url(#b)" transform="scale(24.375000) translate(0.5 0.5)"><g transform="translate(169 87) rotate(329) scale(98 59)"><path d="M0 0h6240v4160H0z" fill="#fff" /></g><g transform="translate(93.807789 150.838823) rotate(352.339809) scale(68.454321 35.188299)"><ellipse fill="#501c00" fill-opacity=".501961" cx="0" cy="0" rx="1" ry="1" /></g><g transform="translate(140.825513 18.722410) rotate(185.021673) scale(19.852281 46.904394)"><ellipse fill="#000300" fill-opacity=".501961" cx="0" cy="0" rx="1" ry="1" /></g><g transform="translate(59.805200 75.019818) rotate(111.900887) scale(72.745096 15.137064)"><ellipse fill="#d5e5f3" fill-opacity=".501961" cx="0" cy="0" rx="1" ry="1" /></g><ellipse fill="#2d1e0b" fill-opacity=".501961" cx="253" cy="83" rx="25" ry="137" /><path fill="#191200" fill-opacity=".501961" d="M-16 110 32 2 31 85z" /><g transform="translate(205.770715 18.148647) rotate(341.339337) scale(35.489897 14.536832)"><ellipse fill="#001d14" fill-opacity=".501961" cx="0" cy="0" rx="1" ry="1" /></g><path d="M0 0h6240v4160H0z" fill="#000" /></g></svg>