<svg xmlns="http://www.w3.org/2000/svg" viewBox="0 0 4160 6240"><filter id="b"><feGaussianBlur stdDeviation="12" /></filter><path d="M0 0h4160v6240H0z" fill="#424439" /><g filter="url(#b)" transform="scale(24.375000) translate(0.5 0.5)"><g transform="translate(99.776138 142.353260) rotate(257.787944) scale(46.485546 31.200201)"><ellipse fill="#fff" fill-opacity=".501961" cx="0" cy="0" rx="1" ry="1" /></g><g transform="translate(26.163140 141.768492) rotate(85.000199) scale(57.660806 16.074415)"><ellipse fill="#d5e7d1" fill-opacity=".501961" cx="0" cy="0" rx="1" ry="1" /></g><g transform="translate(112.348588 13.772675) rotate(254.209480) scale(55.050671 169.000000)"><ellipse fill="#030000" fill-opacity=".501961" cx="0" cy="0" rx="1" ry="1" /></g><g transform="translate(125.674401 230.312729) rotate(-11.298587) scale(169.000000 35.053305)"><ellipse fill="#000" fill-opacity=".501961" cx="0" cy="0" rx="1" ry="1" /></g><g transform="translate(61.679282 36.494895) rotate(329.242237) scale(30.364287 9.425242)"><ellipse fill="#d1c8a3" fill-opacity=".501961" cx="0" cy="0" rx="1" ry="1" /></g><path d="M0 0h4160v6240H0z" fill="#fbffff" /><path d="M0 0h4160v6240H0z" fill="#83a09e" /><path fill="#c7beb2" fill-opacity=".501961" d="M31 208l50-9 52-96z" /></g></svg>