<svg xmlns="http://www.w3.org/2000/svg" viewBox="0 0 6240 4160"><filter id="b"><feGaussianBlur stdDeviation="12" /></filter><path d="M0 0h6240v4160H0z" fill="#817c68" /><g filter="url(#b)" transform="scale(24.375000) translate(0.5 0.5)"><g transform="translate(197.355924 86.455569) rotate(139.242458) scale(53.476975 56.396230)"><ellipse fill="#f6e7d0" fill-opacity=".501961" cx="0" cy="0" rx="1" ry="1" /></g><g transform="translate(63.444043 23.239273) rotate(130.225620) scale(95.209758 64.834419)"><ellipse fill="#24310c" fill-opacity=".501961" cx="0" cy="0" rx="1" ry="1" /></g><g transform="translate(124.840618 160.677706) rotate(160.823634) scale(25.456020 77.816651)"><ellipse fill="#d0c3dd" fill-opacity=".501961" cx="0" cy="0" rx="1" ry="1" /></g><path fill="#e4ffc4" fill-opacity=".501961" d="M259 41 135 64 122 30z" /><g transform="translate(156.129465 0.000000) rotate(185.570538) scale(36.881761 17.611634)"><ellipse fill="#070000" fill-opacity=".501961" cx="0" cy="0" rx="1" ry="1" /></g><g transform="translate(213.364130 70.145870) rotate(315.523239) scale(17.567853 31.089197)"><ellipse fill="#fff" fill-opacity=".501961" cx="0" cy="0" rx="1" ry="1" /></g><path d="M0 0h6240v4160H0z" fill="#29221b" /><path fill="#121832" fill-opacity=".501961" d="M47 123 7 20l3 139z" /></g></svg>