<svg xmlns="http://www.w3.org/2000/svg" viewBox="0 0 4160 6240"><filter id="b"><feGaussianBlur stdDeviation="12" /></filter><path d="M0 0h4160v6240H0z" fill="#3c2b23" /><g filter="url(#b)" transform="scale(24.375000) translate(0.5 0.5)"><g transform="translate(111.322867 204.224860) rotate(338.229733) scale(40.583163 108.554087)"><ellipse fill="#d0765f" fill-opacity=".501961" cx="0" cy="0" rx="1" ry="1" /></g><g transform="translate(91.597830 20.334785) rotate(280.574879) scale(41.268911 169.000000)"><ellipse fill="#000" fill-opacity=".501961" cx="0" cy="0" rx="1" ry="1" /></g><g transform="translate(83.652672 83.722236) rotate(13.924116) scale(11.872869 40.673426)"><ellipse fill="#f99b85" fill-opacity=".501961" cx="0" cy="0" rx="1" ry="1" /></g><g transform="translate(147.997860 114.626187) rotate(61.790056) scale(70.766495 38.081360)"><ellipse fill="#000a0f" fill-opacity=".501961" cx="0" cy="0" rx="1" ry="1" /></g><g transform="translate(15.431270 92.088454) rotate(109.745654) scale(169.000000 30.485262)"><ellipse fill="#00090a" fill-opacity=".501961" cx="0" cy="0" rx="1" ry="1" /></g><path fill="#d1654c" fill-opacity=".501961" d="M60 109 23 196l9-76z" /><path fill="#000" fill-opacity=".501961" d="M29 206l54-70-38-3z" /><path fill="#e1927b" fill-opacity=".501961" d="M121.658357 175.307835 109.364417 117.402569l-47.428902 4.212885L117.429738 178.153648z" /></g></svg>