<svg xmlns="http://www.w3.org/2000/svg" viewBox="0 0 4174 4147"><filter id="b"><feGaussianBlur stdDeviation="12" /></filter><path d="M0 0h4174v4147H0z" fill="#473725" /><g filter="url(#b)" transform="scale(16.304688) translate(0.5 0.5)"><g transform="translate(122.585415 131.591941) rotate(268.534678) scale(88.612645 38.899478)"><ellipse fill="#ffdfa4" fill-opacity=".501961" cx="0" cy="0" rx="1" ry="1" /></g><g transform="translate(19.720239 166.175687) rotate(-92.028530) scale(255.000000 38.076450)"><ellipse fill="#000" fill-opacity=".501961" cx="0" cy="0" rx="1" ry="1" /></g><g transform="translate(124.585224 80.353309) rotate(329.336824) scale(42.337759 23.939414)"><ellipse fill="#ffd5af" fill-opacity=".501961" cx="0" cy="0" rx="1" ry="1" /></g><g transform="translate(215.458038 69.256627) rotate(28.352173) scale(163.607453 31.078688)"><ellipse fill="#000" fill-opacity=".501961" cx="0" cy="0" rx="1" ry="1" /></g><ellipse fill="#ff9b67" fill-opacity=".501961" cx="221" cy="134" rx="15" ry="27" /><path fill="#ffcc8e" fill-opacity=".501961" d="M139.204229 264.829372 193.705058 253.686472 188.187358 256.710902 208.015499 208.739731z" /><path fill="#87d2ff" fill-opacity=".501961" d="M149 9h67l19 24z" /><g transform="translate(251.398763 164.163234) rotate(299.808338) scale(68.866632 27.651891)"><ellipse fill="#000" fill-opacity=".501961" cx="0" cy="0" rx="1" ry="1" /></g></g></svg>