<svg xmlns="http://www.w3.org/2000/svg" viewBox="0 0 6240 4160"><filter id="b"><feGaussianBlur stdDeviation="12" /></filter><path d="M0 0h6240v4160H0z" fill="#86796d" /><g filter="url(#b)" transform="scale(24.375000) translate(0.5 0.5)"><g transform="translate(171.147921 84.752179) rotate(226.187521) scale(30.430402 55.431498)"><ellipse fill="#fff" fill-opacity=".501961" cx="0" cy="0" rx="1" ry="1" /></g><ellipse fill="#521a00" fill-opacity=".501961" cx="95" cy="147" rx="62" ry="35" /><ellipse fill="#000" fill-opacity=".501961" cx="139" cy="16" rx="20" ry="49" /><g transform="translate(255.000000 67.680213) rotate(173.795355) scale(28.769130 40.946121)"><ellipse fill="#060000" fill-opacity=".501961" cx="0" cy="0" rx="1" ry="1" /></g><g transform="translate(61.650765 64.556645) rotate(-66.270652) scale(94.643394 17.110229)"><ellipse fill="#c7d8e3" fill-opacity=".501961" cx="0" cy="0" rx="1" ry="1" /></g><g transform="translate(8.055227 76.881922) rotate(219.635989) scale(15.657683 37.648455)"><ellipse fill="#000300" fill-opacity=".501961" cx="0" cy="0" rx="1" ry="1" /></g><g transform="translate(202.936457 17.557274) rotate(348.612711) scale(81.070913 11.923547)"><ellipse fill="#002317" fill-opacity=".501961" cx="0" cy="0" rx="1" ry="1" /></g><ellipse fill="#000" fill-opacity=".501961" cx="62" cy="54" rx="4" ry="39" /></g></svg>