<svg xmlns="http://www.w3.org/2000/svg" viewBox="0 0 6240 4160"><filter id="b"><feGaussianBlur stdDeviation="12" /></filter><path d="M0 0h6240v4160H0z" fill="#4e4439" /><g filter="url(#b)" transform="scale(24.375000) translate(0.5 0.5)"><ellipse fill="#000" fill-opacity=".501961" cx="8" cy="101" rx="73" ry="73" /><g transform="translate(158.598678 163.175129) rotate(375.985875) scale(56.152868 15.438033)"><ellipse fill="#fbe3bd" fill-opacity=".501961" cx="0" cy="0" rx="1" ry="1" /></g><ellipse fill="#a3a092" fill-opacity=".501961" cx="131" cy="13" rx="79" ry="39" /><g transform="translate(172.796900 79.103906) rotate(358.478272) scale(16.505796 38.129507)"><ellipse fill="#db8a67" fill-opacity=".501961" cx="0" cy="0" rx="1" ry="1" /></g><ellipse fill="#c47a58" fill-opacity=".501961" cx="104" cy="81" rx="49" ry="21" /><ellipse fill="#000505" fill-opacity=".501961" cx="19" cy="97" rx="27" ry="135" /><g transform="translate(214.227169 87.812540) rotate(295.232975) scale(51.283392 31.429990)"><ellipse fill="#190f0b" fill-opacity=".501961" cx="0" cy="0" rx="1" ry="1" /></g><g transform="translate(148.646476 43.621168) rotate(227.196137) scale(10.697219 25.013525)"><ellipse fill="#000" fill-opacity=".501961" cx="0" cy="0" rx="1" ry="1" /></g></g></svg>