<svg xmlns="http://www.w3.org/2000/svg" viewBox="0 0 6240 4160"><filter id="b"><feGaussianBlur stdDeviation="12" /></filter><path d="M0 0h6240v4160H0z" fill="#7b6e62" /><g filter="url(#b)" transform="scale(24.375000) translate(0.5 0.5)"><g transform="translate(77.912676 20.326188) rotate(326.013866) scale(97.692422 38.947344)"><ellipse fill="#fff" fill-opacity=".501961" cx="0" cy="0" rx="1" ry="1" /></g><path fill="#361a03" fill-opacity=".501961" d="M155 185-16 144 110 69z" /><path fill="#131e15" fill-opacity=".501961" d="M211 4 145 185 255 53z" /><g transform="translate(162 37) rotate(347) scale(51 42)"><path d="M0 0h6240v4160H0z" fill="#000" /></g><path fill="#f1eaec" fill-opacity=".501961" d="M113.128874 14.842014 146.844069 68.681064 57.551333 34.886064 49.269634-10.636798z" /><ellipse fill="#510e00" fill-opacity=".501961" cx="254" cy="115" rx="18" ry="66" /><ellipse fill="#000" fill-opacity=".501961" cx="49" cy="145" rx="16" ry="32" /><g transform="translate(172.694989 62.951109) rotate(163.892124) scale(30.963681 4.663642)"><ellipse fill="#fffff7" fill-opacity=".501961" cx="0" cy="0" rx="1" ry="1" /></g></g></svg>