<svg xmlns="http://www.w3.org/2000/svg" viewBox="0 0 4160 6240"><filter id="b"><feGaussianBlur stdDeviation="12" /></filter><path d="M0 0h4160v6240H0z" fill="#585644" /><g filter="url(#b)" transform="scale(24.375000) translate(0.5 0.5)"><g transform="translate(89 201) rotate(170) scale(131 43)"><path d="M0 0h4160v6240H0z" fill="#edc098" /></g><g transform="translate(75.805075 8.343581) rotate(168.354322) scale(24.302857 37.166370)"><ellipse fill="#fff" fill-opacity=".501961" cx="0" cy="0" rx="1" ry="1" /></g><g transform="translate(24.224142 67.268104) rotate(337.606484) scale(45.377580 81.969223)"><ellipse fill="#000702" fill-opacity=".501961" cx="0" cy="0" rx="1" ry="1" /></g><g transform="translate(140.986756 82.300381) rotate(22.232497) scale(33.097096 67.510370)"><ellipse fill="#000" fill-opacity=".501961" cx="0" cy="0" rx="1" ry="1" /></g><g transform="translate(89.786598 140.460877) rotate(221.641058) scale(25.100761 20.396394)"><ellipse fill="#ffb59a" fill-opacity=".501961" cx="0" cy="0" rx="1" ry="1" /></g><ellipse fill="#fff1df" fill-opacity=".501961" cx="159" cy="151" rx="34" ry="9" /><ellipse fill="#f3a78f" fill-opacity=".501961" cx="23" cy="151" rx="27" ry="15" /><g transform="translate(41.734631 185.309320) rotate(259.003160) scale(30.427103 45.187666)"><ellipse fill="#3e5228" fill-opacity=".501961" cx="0" cy="0" rx="1" ry="1" /></g></g></svg>