<svg xmlns="http://www.w3.org/2000/svg" viewBox="0 0 4160 6240"><filter id="b"><feGaussianBlur stdDeviation="12" /></filter><path d="M0 0h4160v6240H0z" fill="#64564c" /><g filter="url(#b)" transform="scale(24.375000) translate(0.5 0.5)"><g transform="translate(14.770556 237.588853) rotate(283.848209) scale(24.585695 54.515231)"><ellipse fill="#fff" fill-opacity=".501961" cx="0" cy="0" rx="1" ry="1" /></g><g transform="translate(54.332075 48.166672) rotate(135.297547) scale(22.230710 36.713071)"><ellipse fill="#fff" fill-opacity=".501961" cx="0" cy="0" rx="1" ry="1" /></g><path fill="#ffdfb7" fill-opacity=".501961" d="M47 190l-63 6L29 80z" /><ellipse fill="#0b0000" fill-opacity=".501961" cx="117" cy="240" rx="37" ry="157" /><g transform="translate(65.457887 102.394590) rotate(379.001366) scale(135.231745 23.280478)"><ellipse fill="#010000" fill-opacity=".501961" cx="0" cy="0" rx="1" ry="1" /></g><ellipse fill="#e6ccbb" fill-opacity=".501961" cx="162" cy="72" rx="105" ry="16" /><g transform="translate(79.942610 169.367301) rotate(315.572113) scale(43.136817 21.530960)"><ellipse fill="#d58562" fill-opacity=".501961" cx="0" cy="0" rx="1" ry="1" /></g><path fill="#ffcea2" fill-opacity=".501961" d="M145.502969 224.205969 157.790392 167.832317 170.063414 141.711013 170.139461 227.930737z" /></g></svg>