<svg xmlns="http://www.w3.org/2000/svg" viewBox="0 0 4160 6240"><filter id="b"><feGaussianBlur stdDeviation="12" /></filter><path d="M0 0h4160v6240H0z" fill="#594b42" /><g filter="url(#b)" transform="scale(24.375000) translate(0.5 0.5)"><g transform="translate(86.784856 116.536485) rotate(257.200970) scale(98.498619 55.158856)"><ellipse fill="#000" fill-opacity=".501961" cx="0" cy="0" rx="1" ry="1" /></g><g transform="translate(86.087651 5.493233) rotate(89.170575) scale(14.642182 75.268771)"><ellipse fill="#fff" fill-opacity=".501961" cx="0" cy="0" rx="1" ry="1" /></g><g transform="translate(14.958477 149.589829) rotate(271.907593) scale(90.643822 17.083396)"><ellipse fill="#ffcdb3" fill-opacity=".501961" cx="0" cy="0" rx="1" ry="1" /></g><g transform="translate(169.000000 73.041285) rotate(241.455426) scale(47.856315 20.617681)"><ellipse fill="#e3e3c6" fill-opacity=".501961" cx="0" cy="0" rx="1" ry="1" /></g><g transform="translate(30.504231 210.205854) rotate(294.691072) scale(19.791661 95.647518)"><ellipse fill="#e3a188" fill-opacity=".501961" cx="0" cy="0" rx="1" ry="1" /></g><g transform="translate(152.784646 176.373333) rotate(97.418577) scale(48.685507 10.369333)"><ellipse fill="#ffbda9" fill-opacity=".501961" cx="0" cy="0" rx="1" ry="1" /></g><g transform="translate(56.396529 168.619718) rotate(69.832385) scale(39.375670 26.940109)"><ellipse fill="#000" fill-opacity=".501961" cx="0" cy="0" rx="1" ry="1" /></g><g transform="translate(111.126730 80.005144) rotate(7.195065) scale(4.386743 38.286474)"><ellipse fill="#e6c2a3" fill-opacity=".501961" cx="0" cy="0" rx="1" ry="1" /></g></g></svg>