<svg xmlns="http://www.w3.org/2000/svg" viewBox="0 0 3456 5184"><filter id="b"><feGaussianBlur stdDeviation="12" /></filter><path d="M0 0h3456v5184H0z" fill="#232b26" /><g filter="url(#b)" transform="scale(20.250000) translate(0.5 0.5)"><g transform="translate(83.064848 82.488873) rotate(90.406409) scale(33.281292 37.170265)"><ellipse fill="#f2ad8d" fill-opacity=".501961" cx="0" cy="0" rx="1" ry="1" /></g><g transform="translate(24.585721 167.146771) rotate(326.208130) scale(36.472450 13.992233)"><ellipse fill="#8d929e" fill-opacity=".501961" cx="0" cy="0" rx="1" ry="1" /></g><path fill="#999298" fill-opacity=".501961" d="M185 176l-85-7 23-33z" /><g transform="translate(109.686481 16.012659) rotate(0.895078) scale(158.147508 36.699183)"><ellipse fill="#000" fill-opacity=".501961" cx="0" cy="0" rx="1" ry="1" /></g><path d="M0 0h3456v5184H0z" fill="#eec4b7" /><g transform="translate(137.944954 71.783380) rotate(160.132016) scale(49.686739 15.726076)"><ellipse fill="#000600" fill-opacity=".501961" cx="0" cy="0" rx="1" ry="1" /></g><g transform="translate(89.680255 138.168174) rotate(301.468017) scale(32.023328 27.467832)"><ellipse fill="#000" fill-opacity=".501961" cx="0" cy="0" rx="1" ry="1" /></g><ellipse fill="#000a02" fill-opacity=".501961" cx="14" cy="78" rx="25" ry="79" /></g></svg>