<svg xmlns="http://www.w3.org/2000/svg" viewBox="0 0 3456 5184"><filter id="b"><feGaussianBlur stdDeviation="12" /></filter><path d="M0 0h3456v5184H0z" fill="#30332a" /><g filter="url(#b)" transform="scale(20.250000) translate(0.5 0.5)"><g transform="translate(47 243) rotate(196) scale(127 54)"><path d="M0 0h3456v5184H0z" fill="#d2a789" /></g><g transform="translate(84.936586 94.211079) rotate(177.534039) scale(19.273051 26.235847)"><ellipse fill="#ffcea9" fill-opacity=".501961" cx="0" cy="0" rx="1" ry="1" /></g><g transform="translate(147.222680 226.088155) rotate(215.580789) scale(13.655249 23.801857)"><ellipse fill="#ffe6bd" fill-opacity=".501961" cx="0" cy="0" rx="1" ry="1" /></g><g transform="translate(30.302004 55.860421) rotate(104.466910) scale(133.080437 45.286611)"><ellipse fill="#000" fill-opacity=".501961" cx="0" cy="0" rx="1" ry="1" /></g><ellipse fill="#d6ac95" fill-opacity=".501961" cx="111" cy="145" rx="53" ry="13" /><g transform="translate(99.555166 27.492246) rotate(9.958709) scale(169.000000 43.832728)"><ellipse fill="#000" fill-opacity=".501961" cx="0" cy="0" rx="1" ry="1" /></g><g transform="translate(48.990413 219.704810) rotate(87.910498) scale(42.709382 13.154461)"><ellipse fill="#000d10" fill-opacity=".501961" cx="0" cy="0" rx="1" ry="1" /></g><path fill="#ffd3b7" fill-opacity=".501961" d="M22.748844 200.319216 36.003151 206.789221 23.396443 239.495755-7.802428 239.634202z" /></g></svg>