<svg xmlns="http://www.w3.org/2000/svg" viewBox="0 0 4160 6240"><filter id="b"><feGaussianBlur stdDeviation="12" /></filter><path d="M0 0h4160v6240H0z" fill="#594b42" /><g filter="url(#b)" transform="scale(24.375000) translate(0.5 0.5)"><path fill="#ffccb1" fill-opacity=".501961" d="M49 237-10 225 13 32z" /><g transform="translate(86.755001 117.143349) rotate(72.834022) scale(101.745263 52.252223)"><ellipse fill="#000" fill-opacity=".501961" cx="0" cy="0" rx="1" ry="1" /></g><ellipse fill="#fff" fill-opacity=".501961" cx="83" cy="6" rx="75" ry="14" /><g transform="translate(165.864972 73.135072) rotate(155.115451) scale(16.944287 49.028471)"><ellipse fill="#e8e6c9" fill-opacity=".501961" cx="0" cy="0" rx="1" ry="1" /></g><g transform="translate(152.222493 174.997804) rotate(367.068623) scale(8.406309 50.564443)"><ellipse fill="#ffcab6" fill-opacity=".501961" cx="0" cy="0" rx="1" ry="1" /></g><g transform="translate(63.212134 168.327568) rotate(149.467208) scale(34.569183 35.973870)"><ellipse fill="#000" fill-opacity=".501961" cx="0" cy="0" rx="1" ry="1" /></g><g transform="translate(95.493398 228.285911) rotate(344.453576) scale(19.279684 31.167930)"><ellipse fill="#dcaa9a" fill-opacity=".501961" cx="0" cy="0" rx="1" ry="1" /></g><g transform="translate(26 35) rotate(6) scale(169 38)"><path d="M0 0h4160v6240H0z" fill="#000" /></g></g></svg>