<svg xmlns="http://www.w3.org/2000/svg" viewBox="0 0 4160 6240"><filter id="b"><feGaussianBlur stdDeviation="12" /></filter><path d="M0 0h4160v6240H0z" fill="#a07259" /><g filter="url(#b)" transform="scale(24.375000) translate(0.5 0.5)"><g transform="translate(145.944955 101.894484) rotate(287.463965) scale(91.355666 39.540217)"><ellipse fill="#ffffe8" fill-opacity=".501961" cx="0" cy="0" rx="1" ry="1" /></g><g transform="translate(23.285248 20.140601) rotate(398.501477) scale(104.692815 40.659209)"><ellipse fill="#000" fill-opacity=".501961" cx="0" cy="0" rx="1" ry="1" /></g><g transform="translate(6.765646 200.895885) rotate(153.535640) scale(28.560755 169.000000)"><ellipse fill="#000100" fill-opacity=".501961" cx="0" cy="0" rx="1" ry="1" /></g><g transform="translate(90.796479 159.234909) rotate(277.530113) scale(55.519851 34.451484)"><ellipse fill="#fca57b" fill-opacity=".501961" cx="0" cy="0" rx="1" ry="1" /></g><path fill="#ffe7cf" fill-opacity=".501961" d="M171 131 185 30 103-16z" /><g transform="translate(43 155) rotate(-28) scale(23 29)"><path d="M0 0h4160v6240H0z" fill="#000" /></g><g transform="translate(24.431512 95.450674) rotate(155.783211) scale(15.056717 41.993198)"><ellipse fill="#ffc494" fill-opacity=".501961" cx="0" cy="0" rx="1" ry="1" /></g><g transform="translate(165.221214 229.596085) rotate(90.267049) scale(20.270867 58.866469)"><ellipse fill="#ffbd87" fill-opacity=".501961" cx="0" cy="0" rx="1" ry="1" /></g></g></svg>