<svg xmlns="http://www.w3.org/2000/svg" viewBox="0 0 4160 6240"><filter id="b"><feGaussianBlur stdDeviation="12" /></filter><path d="M0 0h4160v6240H0z" fill="#585644" /><g filter="url(#b)" transform="scale(24.375000) translate(0.5 0.5)"><g transform="translate(91.962974 207.536733) rotate(254.980539) scale(12.458552 73.203253)"><ellipse fill="#ffe7c9" fill-opacity=".501961" cx="0" cy="0" rx="1" ry="1" /></g><ellipse fill="#fff" fill-opacity=".501961" cx="75" cy="0" rx="23" ry="44" /><g transform="translate(25.450777 76.074747) rotate(156.345612) scale(49.744216 67.956378)"><ellipse fill="#000500" fill-opacity=".501961" cx="0" cy="0" rx="1" ry="1" /></g><g transform="translate(140.610810 84.578893) rotate(380.769165) scale(33.183915 68.367864)"><ellipse fill="#000" fill-opacity=".501961" cx="0" cy="0" rx="1" ry="1" /></g><g transform="translate(87.847998 141.448811) rotate(232.228190) scale(22.851056 22.209896)"><ellipse fill="#ffb99d" fill-opacity=".501961" cx="0" cy="0" rx="1" ry="1" /></g><path fill="#ffc1a3" fill-opacity=".501961" d="M73 220l112-79-48 2z" /><path fill="#ffb89e" fill-opacity=".501961" d="M48 136 18 174-16 141z" /><path fill="#ffb59f" fill-opacity=".501961" d="M88.193428 177.56743 78.860057 216.50293 151.554561 218.275367 164.510926 203.947809z" /></g></svg>