<svg xmlns="http://www.w3.org/2000/svg" viewBox="0 0 4160 6240"><filter id="b"><feGaussianBlur stdDeviation="12" /></filter><path d="M0 0h4160v6240H0z" fill="#64564c" /><g filter="url(#b)" transform="scale(24.375000) translate(0.5 0.5)"><g transform="translate(13.657019 242.410297) rotate(279.024931) scale(28.110113 50.788243)"><ellipse fill="#fff" fill-opacity=".501961" cx="0" cy="0" rx="1" ry="1" /></g><path fill="#fffffe" fill-opacity=".501961" d="M30 19 139 83 35 70z" /><g transform="translate(17.806287 151.788174) rotate(194.771944) scale(18.294567 44.623702)"><ellipse fill="#fff3c8" fill-opacity=".501961" cx="0" cy="0" rx="1" ry="1" /></g><ellipse fill="#0c0000" fill-opacity=".501961" cx="119" cy="255" rx="37" ry="182" /><g transform="translate(53.940565 93.672288) rotate(26.827711) scale(121.054486 19.138418)"><ellipse fill="#000" fill-opacity=".501961" cx="0" cy="0" rx="1" ry="1" /></g><g transform="translate(147.162970 70.648110) rotate(-10.321243) scale(59.435896 12.882254)"><ellipse fill="#efd3c2" fill-opacity=".501961" cx="0" cy="0" rx="1" ry="1" /></g><g transform="translate(76.754872 173.213771) rotate(48.606882) scale(18.900098 49.089640)"><ellipse fill="#d38663" fill-opacity=".501961" cx="0" cy="0" rx="1" ry="1" /></g><g transform="translate(169.000000 179.316822) rotate(199.247670) scale(14.367562 51.482496)"><ellipse fill="#ffcca1" fill-opacity=".501961" cx="0" cy="0" rx="1" ry="1" /></g></g></svg>