<svg xmlns="http://www.w3.org/2000/svg" viewBox="0 0 3456 5184"><filter id="b"><feGaussianBlur stdDeviation="12" /></filter><path d="M0 0h3456v5184H0z" fill="#30332a" /><g filter="url(#b)" transform="scale(20.250000) translate(0.5 0.5)"><ellipse fill="#ddab8d" fill-opacity=".501961" cx="39" cy="236" rx="169" ry="13" /><g transform="translate(85 92) rotate(-1) scale(34 43)"><path d="M0 0h3456v5184H0z" fill="#ffe0ba" /></g><g transform="translate(79.206231 17.995143) rotate(340.392125) scale(169.000000 51.195427)"><ellipse fill="#000" fill-opacity=".501961" cx="0" cy="0" rx="1" ry="1" /></g><g transform="translate(151.427131 219.927050) rotate(299.868792) scale(13.309671 15.703152)"><ellipse fill="#fffad4" fill-opacity=".501961" cx="0" cy="0" rx="1" ry="1" /></g><ellipse fill="#d4ab94" fill-opacity=".501961" cx="109" cy="145" rx="54" ry="13" /><g transform="translate(20 222) rotate(205) scale(25 36)"><path d="M0 0h3456v5184H0z" fill="#fff1d0" /></g><g transform="translate(35 64) rotate(92) scale(169 70)"><path d="M0 0h3456v5184H0z" fill="#000" /></g><g transform="translate(126.954391 36.159975) rotate(249.361285) scale(112.624792 38.228429)"><ellipse fill="#000f06" fill-opacity=".501961" cx="0" cy="0" rx="1" ry="1" /></g></g></svg>