<svg xmlns="http://www.w3.org/2000/svg" viewBox="0 0 3456 5184"><filter id="b"><feGaussianBlur stdDeviation="12" /></filter><path d="M0 0h3456v5184H0z" fill="#232b26" /><g filter="url(#b)" transform="scale(20.250000) translate(0.5 0.5)"><g transform="translate(81.511985 84.359499) rotate(430.058271) scale(33.640678 39.077013)"><ellipse fill="#f0aa89" fill-opacity=".501961" cx="0" cy="0" rx="1" ry="1" /></g><g transform="translate(28.620114 174.298934) rotate(145.102945) scale(40.087895 21.718244)"><ellipse fill="#717883" fill-opacity=".501961" cx="0" cy="0" rx="1" ry="1" /></g><path fill="#000" fill-opacity=".501961" d="M185 89 169-16-16 3z" /><g transform="translate(150 165) rotate(24) scale(77 21)"><path d="M0 0h3456v5184H0z" fill="#9999a3" /></g><g transform="translate(80.511221 65.484156) rotate(284.994098) scale(13.313427 25.933497)"><ellipse fill="#e9beb0" fill-opacity=".501961" cx="0" cy="0" rx="1" ry="1" /></g><ellipse fill="#000900" fill-opacity=".501961" cx="0" cy="58" rx="47" ry="105" /><g transform="translate(88.227292 138.838613) rotate(187.196603) scale(24.575563 31.367404)"><ellipse fill="#000" fill-opacity=".501961" cx="0" cy="0" rx="1" ry="1" /></g><path d="M0 0h3456v5184H0z" fill="#19180a" /></g></svg>