<svg xmlns="http://www.w3.org/2000/svg" viewBox="0 0 6240 4160"><filter id="b"><feGaussianBlur stdDeviation="12" /></filter><path d="M0 0h6240v4160H0z" fill="#494839" /><g filter="url(#b)" transform="scale(24.375000) translate(0.5 0.5)"><path fill="#ffb9a9" fill-opacity=".501961" d="M161 152 144 87l49 21z" /><path d="M0 0h6240v4160H0z" fill="#e2a581" /><ellipse fill="#000" fill-opacity=".501961" cx="139" cy="159" rx="72" ry="22" /><g transform="translate(94.149725 92.003716) rotate(299.890307) scale(24.510573 34.578481)"><ellipse fill="#000009" fill-opacity=".501961" cx="0" cy="0" rx="1" ry="1" /></g><g transform="translate(230.166715 128.439764) rotate(52.577637) scale(28.629217 18.231555)"><ellipse fill="#9f908d" fill-opacity=".501961" cx="0" cy="0" rx="1" ry="1" /></g><g transform="translate(64.160239 45.150590) rotate(314.201241) scale(34.539552 14.317799)"><ellipse fill="#9ebda0" fill-opacity=".501961" cx="0" cy="0" rx="1" ry="1" /></g><ellipse fill="#ffc3ad" fill-opacity=".501961" cx="106" cy="44" rx="7" ry="23" /><path fill="#da9b80" fill-opacity=".501961" d="M48 125l67 8-31-28z" /></g></svg>