<svg xmlns="http://www.w3.org/2000/svg" viewBox="0 0 4160 6240"><filter id="b"><feGaussianBlur stdDeviation="12" /></filter><path d="M0 0h4160v6240H0z" fill="#424439" /><g filter="url(#b)" transform="scale(24.375000) translate(0.5 0.5)"><g transform="translate(99.052213 142.035349) rotate(253.831656) scale(45.739686 30.979397)"><ellipse fill="#fff" fill-opacity=".501961" cx="0" cy="0" rx="1" ry="1" /></g><g transform="translate(26.132865 134.415250) rotate(176.803479) scale(16.467232 53.458416)"><ellipse fill="#d6ead2" fill-opacity=".501961" cx="0" cy="0" rx="1" ry="1" /></g><g transform="translate(110.528136 9.001622) rotate(248.566718) scale(55.797064 153.163508)"><ellipse fill="#030000" fill-opacity=".501961" cx="0" cy="0" rx="1" ry="1" /></g><g transform="translate(135.206434 233.247502) rotate(351.535182) scale(169.000000 39.518899)"><ellipse fill="#000" fill-opacity=".501961" cx="0" cy="0" rx="1" ry="1" /></g><g transform="translate(63.605852 35.595630) rotate(234.806450) scale(12.645541 24.567403)"><ellipse fill="#cdc39c" fill-opacity=".501961" cx="0" cy="0" rx="1" ry="1" /></g><g transform="translate(57.374526 185.967234) rotate(322.826977) scale(32.438741 18.531115)"><ellipse fill="#ac9d8e" fill-opacity=".501961" cx="0" cy="0" rx="1" ry="1" /></g><path fill="#e0f8ea" fill-opacity=".501961" d="M160.39129 162.912759 147.231302 183.243427 148.953864 109.778676 156.642261 102.453515z" /><path d="M0 0h4160v6240H0z" fill="#7e9b98" /></g></svg>