<svg xmlns="http://www.w3.org/2000/svg" viewBox="0 0 6240 4160"><filter id="b"><feGaussianBlur stdDeviation="12" /></filter><path d="M0 0h6240v4160H0z" fill="#817c68" /><g filter="url(#b)" transform="scale(24.375000) translate(0.5 0.5)"><ellipse fill="#f6e8d0" fill-opacity=".501961" cx="196" cy="85" rx="55" ry="55" /><path fill="#222e0f" fill-opacity=".501961" d="M11 157-3-16l180 4z" /><g transform="translate(111.511807 135.684938) rotate(27.265687) scale(47.714715 24.978441)"><ellipse fill="#d1cad4" fill-opacity=".501961" cx="0" cy="0" rx="1" ry="1" /></g><path fill="#daffc3" fill-opacity=".501961" d="M271 31 222 97 108 31z" /><path d="M0 0h6240v4160H0z" fill="#671931" /><g transform="translate(143 82) rotate(260) scale(28 30)"><path d="M0 0h6240v4160H0z" fill="#151b17" /></g><g transform="translate(156.206832 0.000000) rotate(96.782207) scale(18.096548 37.220573)"><ellipse fill="#190000" fill-opacity=".501961" cx="0" cy="0" rx="1" ry="1" /></g><g transform="translate(255.000000 48.724785) rotate(247.207665) scale(58.585696 28.135455)"><ellipse fill="#64863d" fill-opacity=".501961" cx="0" cy="0" rx="1" ry="1" /></g></g></svg>