<svg xmlns="http://www.w3.org/2000/svg" viewBox="0 0 4160 6240"><filter id="b"><feGaussianBlur stdDeviation="12" /></filter><path d="M0 0h4160v6240H0z" fill="#3c2b23" /><g filter="url(#b)" transform="scale(24.375000) translate(0.5 0.5)"><g transform="translate(113.178348 205.177197) rotate(247.703763) scale(121.700797 36.383857)"><ellipse fill="#d37860" fill-opacity=".501961" cx="0" cy="0" rx="1" ry="1" /></g><path fill="#00090b" fill-opacity=".501961" d="M-15-1 168 179 185-5z" /><g transform="translate(83.192055 85.140680) rotate(103.967749) scale(41.952868 12.105417)"><ellipse fill="#fc9c84" fill-opacity=".501961" cx="0" cy="0" rx="1" ry="1" /></g><g transform="translate(14.904422 70.135154) rotate(201.407882) scale(40.764364 99.717961)"><ellipse fill="#000708" fill-opacity=".501961" cx="0" cy="0" rx="1" ry="1" /></g><path fill="#000" fill-opacity=".501961" d="M31.946497 189.126377 83.017419 142.819927 69.2248 135.738632 57.375383 118.914572z" /><path d="M0 0h4160v6240H0z" fill="#de836d" /><g transform="translate(75.080362 202.921547) rotate(163.630241) scale(12.612389 41.469914)"><ellipse fill="#b45b44" fill-opacity=".501961" cx="0" cy="0" rx="1" ry="1" /></g><ellipse fill="#001010" fill-opacity=".501961" cx="141" cy="40" rx="43" ry="120" /></g></svg>