<svg xmlns="http://www.w3.org/2000/svg" viewBox="0 0 4160 6240"><filter id="b"><feGaussianBlur stdDeviation="12" /></filter><path d="M0 0h4160v6240H0z" fill="#272315" /><g filter="url(#b)" transform="scale(24.375000) translate(0.5 0.5)"><g transform="translate(85.094104 109.447700) rotate(251.829085) scale(33.652167 23.705516)"><ellipse fill="#edb688" fill-opacity=".501961" cx="0" cy="0" rx="1" ry="1" /></g><ellipse fill="#c3ac9c" fill-opacity=".501961" cx="94" cy="20" rx="29" ry="12" /><g transform="translate(63.604813 181.744348) rotate(87.539198) scale(12.341400 63.669025)"><ellipse fill="#866745" fill-opacity=".501961" cx="0" cy="0" rx="1" ry="1" /></g><g transform="translate(24.591677 70.504575) rotate(273.464687) scale(109.246059 34.184073)"><ellipse fill="#000" fill-opacity=".501961" cx="0" cy="0" rx="1" ry="1" /></g><g transform="translate(148.837034 81.610100) rotate(88.813696) scale(93.626773 36.360536)"><ellipse fill="#000600" fill-opacity=".501961" cx="0" cy="0" rx="1" ry="1" /></g><path fill="#bd7f63" fill-opacity=".501961" d="M70.516885 178.495201 58.493456 161.463668 58.310339 233.938823 63.968776 227.679531z" /><g transform="translate(14.146036 239.840257) rotate(392.938478) scale(37.197445 52.336545)"><ellipse fill="#000" fill-opacity=".501961" cx="0" cy="0" rx="1" ry="1" /></g><g transform="translate(85.031174 121.703549) rotate(276.992156) scale(17.519624 27.010623)"><ellipse fill="#c08e61" fill-opacity=".501961" cx="0" cy="0" rx="1" ry="1" /></g></g></svg>