<svg xmlns="http://www.w3.org/2000/svg" viewBox="0 0 4160 6240"><filter id="b"><feGaussianBlur stdDeviation="12" /></filter><path d="M0 0h4160v6240H0z" fill="#5f6363" /><g filter="url(#b)" transform="scale(24.375000) translate(0.5 0.5)"><g transform="translate(109.593715 54.706788) rotate(250.421486) scale(46.729875 169.000000)"><ellipse fill="#000600" fill-opacity=".501961" cx="0" cy="0" rx="1" ry="1" /></g><g transform="translate(13.370300 171.979501) rotate(252.707604) scale(31.080085 62.397428)"><ellipse fill="#f2ebf1" fill-opacity=".501961" cx="0" cy="0" rx="1" ry="1" /></g><g transform="translate(112 247) rotate(87) scale(44 248)"><path d="M0 0h4160v6240H0z" fill="#f6dbce" /></g><g transform="translate(125.900055 146.117435) rotate(82.050301) scale(31.708591 49.366998)"><ellipse fill="#c0c2ce" fill-opacity=".501961" cx="0" cy="0" rx="1" ry="1" /></g><path d="M0 0h4160v6240H0z" fill="#dde8f0" /><path fill="#c4ccd3" fill-opacity=".501961" d="M30.471976-16 51.737023-5.315192 65.087979 26.006974 34.526596 47.442267z" /><ellipse fill="#000d07" fill-opacity=".501961" cx="27" cy="77" rx="58" ry="36" /><g transform="translate(159.326220 84.810199) rotate(198.270835) scale(23.787538 37.597253)"><ellipse fill="#0b150f" fill-opacity=".501961" cx="0" cy="0" rx="1" ry="1" /></g></g></svg>