<svg xmlns="http://www.w3.org/2000/svg" viewBox="0 0 6240 4160"><filter id="b"><feGaussianBlur stdDeviation="12" /></filter><path d="M0 0h6240v4160H0z" fill="#625c4d" /><g filter="url(#b)" transform="scale(24.375000) translate(0.5 0.5)"><ellipse fill="#c2a487" fill-opacity=".501961" cx="137" cy="135" rx="167" ry="54" /><g transform="translate(138.404846 27.059444) rotate(90.588050) scale(49.165364 188.573081)"><ellipse fill="#000e0b" fill-opacity=".501961" cx="0" cy="0" rx="1" ry="1" /></g><g transform="translate(225.072154 99.076045) rotate(143.857144) scale(24.283275 33.789854)"><ellipse fill="#e4a5a6" fill-opacity=".501961" cx="0" cy="0" rx="1" ry="1" /></g><path d="M0 0h6240v4160H0z" fill="#000013" /><path fill="#e8a697" fill-opacity=".501961" d="M134 49l-30 62 65-2z" /><g transform="translate(175.105326 74.774674) rotate(246.157495) scale(21.318678 20.525199)"><ellipse fill="#000c0b" fill-opacity=".501961" cx="0" cy="0" rx="1" ry="1" /></g><g transform="translate(142.561172 0.000000) rotate(143.934750) scale(26.301502 17.109456)"><ellipse fill="#abb0a6" fill-opacity=".501961" cx="0" cy="0" rx="1" ry="1" /></g><path fill="#000807" fill-opacity=".501961" d="M271-16H213.031671L242.771062 99.77203 257.407427 99.219694z" /></g></svg>