<svg xmlns="http://www.w3.org/2000/svg" viewBox="0 0 4160 6240"><filter id="b"><feGaussianBlur stdDeviation="12" /></filter><path d="M0 0h4160v6240H0z" fill="#272315" /><g filter="url(#b)" transform="scale(24.375000) translate(0.5 0.5)"><g transform="translate(86.986848 108.753614) rotate(77.854561) scale(32.406497 25.844628)"><ellipse fill="#ecb587" fill-opacity=".501961" cx="0" cy="0" rx="1" ry="1" /></g><ellipse fill="#c7b0a0" fill-opacity=".501961" cx="93" cy="20" rx="30" ry="11" /><g transform="translate(76.718931 182.623360) rotate(270.156591) scale(13.433968 80.846497)"><ellipse fill="#785d3d" fill-opacity=".501961" cx="0" cy="0" rx="1" ry="1" /></g><g transform="translate(21.858671 57.333608) rotate(92.210380) scale(123.667413 39.128358)"><ellipse fill="#000100" fill-opacity=".501961" cx="0" cy="0" rx="1" ry="1" /></g><ellipse fill="#000700" fill-opacity=".501961" cx="169" cy="76" rx="64" ry="97" /><g transform="translate(63 197) rotate(181) scale(10 62)"><path d="M0 0h4160v6240H0z" fill="#c38366" /></g><g transform="translate(18 229) rotate(265) scale(66 76)"><path d="M0 0h4160v6240H0z" fill="#000" /></g><path d="M0 0h4160v6240H0z" fill="#40382f" /></g></svg>