<svg xmlns="http://www.w3.org/2000/svg" viewBox="0 0 4160 6240"><filter id="b"><feGaussianBlur stdDeviation="12" /></filter><path d="M0 0h4160v6240H0z" fill="#5f6363" /><g filter="url(#b)" transform="scale(24.375000) translate(0.5 0.5)"><g transform="translate(50.147323 77.905555) rotate(78.955997) scale(42.078215 73.545644)"><ellipse fill="#000" fill-opacity=".501961" cx="0" cy="0" rx="1" ry="1" /></g><g transform="translate(51.815583 163.499357) rotate(258.691048) scale(27.931743 166.484893)"><ellipse fill="#cecdd6" fill-opacity=".501961" cx="0" cy="0" rx="1" ry="1" /></g><g transform="translate(95.552687 248.512488) rotate(-2.989107) scale(156.778884 23.996400)"><ellipse fill="#f4dacd" fill-opacity=".501961" cx="0" cy="0" rx="1" ry="1" /></g><g transform="translate(152.960065 39.137269) rotate(89.635570) scale(83.995318 22.098576)"><ellipse fill="#000" fill-opacity=".501961" cx="0" cy="0" rx="1" ry="1" /></g><g transform="translate(94.796144 9.837729) rotate(250.172704) scale(48.160756 23.238996)"><ellipse fill="#08110c" fill-opacity=".501961" cx="0" cy="0" rx="1" ry="1" /></g><path d="M0 0h4160v6240H0z" fill="#25343c" /><ellipse fill="#e1d9d8" fill-opacity=".501961" cx="6" cy="173" rx="33" ry="33" /><path d="M0 0h4160v6240H0z" fill="#ced4db" /></g></svg>