<svg xmlns="http://www.w3.org/2000/svg" viewBox="0 0 6240 4160"><filter id="b"><feGaussianBlur stdDeviation="12" /></filter><path d="M0 0h6240v4160H0z" fill="#494839" /><g filter="url(#b)" transform="scale(24.375000) translate(0.5 0.5)"><g transform="translate(45.583830 67.139379) rotate(-40.339660) scale(12.164197 23.659641)"><ellipse fill="#ffe7cc" fill-opacity=".501961" cx="0" cy="0" rx="1" ry="1" /></g><g transform="translate(135.213608 162.747571) rotate(98.127099) scale(24.975781 67.699724)"><ellipse fill="#000" fill-opacity=".501961" cx="0" cy="0" rx="1" ry="1" /></g><path fill="#f9a692" fill-opacity=".501961" d="M161 159 133 66l51 41z" /><path fill="#d49573" fill-opacity=".501961" d="M19 105l117 21-95 13z" /><ellipse fill="#000005" fill-opacity=".501961" cx="97" cy="89" rx="34" ry="22" /><g transform="translate(223.206613 122.470473) rotate(116.226540) scale(14.775367 30.623398)"><ellipse fill="#b0938d" fill-opacity=".501961" cx="0" cy="0" rx="1" ry="1" /></g><g transform="translate(82.074757 41.814046) rotate(164.589761) scale(34.676036 25.483375)"><ellipse fill="#898d71" fill-opacity=".501961" cx="0" cy="0" rx="1" ry="1" /></g><g transform="translate(181.931934 108.219663) rotate(20.863684) scale(26.098544 4.115999)"><ellipse fill="#ffeadf" fill-opacity=".501961" cx="0" cy="0" rx="1" ry="1" /></g></g></svg>