<svg xmlns="http://www.w3.org/2000/svg" viewBox="0 0 6240 4160"><filter id="b"><feGaussianBlur stdDeviation="12" /></filter><path d="M0 0h6240v4160H0z" fill="#4e4439" /><g filter="url(#b)" transform="scale(24.375000) translate(0.5 0.5)"><g transform="translate(28.157751 110.307218) rotate(346.960306) scale(40.662791 141.515368)"><ellipse fill="#000" fill-opacity=".501961" cx="0" cy="0" rx="1" ry="1" /></g><ellipse fill="#997e6b" fill-opacity=".501961" cx="123" cy="23" rx="81" ry="81" /><g transform="translate(166.587895 166.332500) rotate(288.389354) scale(14.532222 63.199496)"><ellipse fill="#ffedc6" fill-opacity=".501961" cx="0" cy="0" rx="1" ry="1" /></g><ellipse fill="#000" fill-opacity=".501961" cx="46" cy="55" rx="67" ry="13" /><g transform="translate(189.792625 13.181206) rotate(-54.753021) scale(32.890040 15.638907)"><ellipse fill="#c0d7db" fill-opacity=".501961" cx="0" cy="0" rx="1" ry="1" /></g><g transform="translate(225.466614 65.065397) rotate(115.668885) scale(15.450469 50.380476)"><ellipse fill="#000003" fill-opacity=".501961" cx="0" cy="0" rx="1" ry="1" /></g><path fill="#ffb68f" fill-opacity=".501961" d="M153.897549 106.384655 178.154386 115.244449 186.538092 42.328359 177.937857 86.901405z" /><g transform="translate(190.839201 169.000000) rotate(47.914215) scale(9.632833 23.025042)"><ellipse fill="#fffef9" fill-opacity=".501961" cx="0" cy="0" rx="1" ry="1" /></g></g></svg>