<svg xmlns="http://www.w3.org/2000/svg" viewBox="0 0 6240 4160"><filter id="b"><feGaussianBlur stdDeviation="12" /></filter><path d="M0 0h6240v4160H0z" fill="#817c68" /><g filter="url(#b)" transform="scale(24.375000) translate(0.5 0.5)"><g transform="translate(192.624395 88.829519) rotate(228.190910) scale(61.753687 51.971775)"><ellipse fill="#f4e1cd" fill-opacity=".501961" cx="0" cy="0" rx="1" ry="1" /></g><g transform="translate(56.398590 30.887450) rotate(411.100316) scale(60.679673 93.781642)"><ellipse fill="#23310c" fill-opacity=".501961" cx="0" cy="0" rx="1" ry="1" /></g><g transform="translate(125.001673 159.326638) rotate(341.046484) scale(25.599263 64.371833)"><ellipse fill="#d4cbe4" fill-opacity=".501961" cx="0" cy="0" rx="1" ry="1" /></g><path d="M0 0h6240v4160H0z" fill="#d4ffb3" /><g transform="translate(156.127954 0.000000) rotate(185.234670) scale(35.626888 18.571472)"><ellipse fill="#080000" fill-opacity=".501961" cx="0" cy="0" rx="1" ry="1" /></g><g transform="translate(137.657277 84.030264) rotate(367.991261) scale(21.263601 22.587819)"><ellipse fill="#322929" fill-opacity=".501961" cx="0" cy="0" rx="1" ry="1" /></g><path fill="#6c1e2a" fill-opacity=".501961" d="M226 185l6-83-35-17z" /><path fill="#0c132e" fill-opacity=".501961" d="M44 126 6 155 13 24z" /></g></svg>