<svg xmlns="http://www.w3.org/2000/svg" viewBox="0 0 4160 6240"><filter id="b"><feGaussianBlur stdDeviation="12" /></filter><path d="M0 0h4160v6240H0z" fill="#666866" /><g filter="url(#b)" transform="scale(24.375000) translate(0.5 0.5)"><g transform="translate(24.613422 138.218312) rotate(323.667142) scale(59.082457 24.018261)"><ellipse fill="#fff" fill-opacity=".501961" cx="0" cy="0" rx="1" ry="1" /></g><g transform="translate(84.384499 222.577150) rotate(54.316872) scale(33.245808 169.000000)"><ellipse fill="#00000e" fill-opacity=".501961" cx="0" cy="0" rx="1" ry="1" /></g><g transform="translate(157.463156 252.862820) rotate(74.079285) scale(28.612505 49.122445)"><ellipse fill="#fff" fill-opacity=".501961" cx="0" cy="0" rx="1" ry="1" /></g><g transform="translate(111.904138 29.911503) rotate(315.605478) scale(108.545505 11.203511)"><ellipse fill="#fff" fill-opacity=".501961" cx="0" cy="0" rx="1" ry="1" /></g><g transform="translate(74.348697 146.932956) rotate(242.716373) scale(47.626136 15.888572)"><ellipse fill="#fff0d9" fill-opacity=".501961" cx="0" cy="0" rx="1" ry="1" /></g><ellipse fill="#fff" fill-opacity=".501961" cx="131" cy="73" rx="72" ry="7" /><g transform="translate(131.216175 94.664910) rotate(353.532147) scale(66.280100 15.627616)"><ellipse fill="#000" fill-opacity=".501961" cx="0" cy="0" rx="1" ry="1" /></g><g transform="translate(47.069368 187.812130) rotate(180.532667) scale(27.530020 39.937897)"><ellipse fill="#000019" fill-opacity=".501961" cx="0" cy="0" rx="1" ry="1" /></g></g></svg>