<svg xmlns="http://www.w3.org/2000/svg" viewBox="0 0 4160 6240"><filter id="b"><feGaussianBlur stdDeviation="12" /></filter><path d="M0 0h4160v6240H0z" fill="#342e1b" /><g filter="url(#b)" transform="scale(24.375000) translate(0.5 0.5)"><g transform="translate(77.416443 57.785753) rotate(245.825205) scale(46.430317 15.234911)"><ellipse fill="#a28676" fill-opacity=".501961" cx="0" cy="0" rx="1" ry="1" /></g><g transform="translate(148.544098 88.625057) rotate(175.588841) scale(37.124071 101.423935)"><ellipse fill="#000200" fill-opacity=".501961" cx="0" cy="0" rx="1" ry="1" /></g><g transform="translate(15.995332 190.884868) rotate(196.297936) scale(74.041982 15.643265)"><ellipse fill="#8b7553" fill-opacity=".501961" cx="0" cy="0" rx="1" ry="1" /></g><g transform="translate(105.585880 172.012685) rotate(126.722888) scale(19.135897 11.657105)"><ellipse fill="#d3722b" fill-opacity=".501961" cx="0" cy="0" rx="1" ry="1" /></g><g transform="translate(13.892454 76.426553) rotate(283.643098) scale(83.132543 9.555850)"><ellipse fill="#7a6849" fill-opacity=".501961" cx="0" cy="0" rx="1" ry="1" /></g><path fill="#917c6b" fill-opacity=".501961" d="M51.270807 83.969812 55.646992 104.208168l58.92671-49.660084L79.008941 52.55864z" /><g transform="translate(102.745017 255.000000) rotate(97.958521) scale(33.908650 100.365708)"><ellipse fill="#141000" fill-opacity=".501961" cx="0" cy="0" rx="1" ry="1" /></g><g transform="translate(46.554184 68.338237) rotate(307.499366) scale(31.436046 18.248189)"><ellipse fill="#071004" fill-opacity=".501961" cx="0" cy="0" rx="1" ry="1" /></g></g></svg>