<svg xmlns="http://www.w3.org/2000/svg" viewBox="0 0 6240 4160"><filter id="b"><feGaussianBlur stdDeviation="12" /></filter><path d="M0 0h6240v4160H0z" fill="#5b3d24" /><g filter="url(#b)" transform="scale(24.375000) translate(0.5 0.5)"><g transform="translate(124.825581 93.208752) rotate(3.009632) scale(44.687709 94.623149)"><ellipse fill="#ffc886" fill-opacity=".501961" cx="0" cy="0" rx="1" ry="1" /></g><ellipse fill="#020000" fill-opacity=".501961" cx="255" cy="86" rx="100" ry="100" /><ellipse fill="#000b00" fill-opacity=".501961" cx="0" cy="81" rx="86" ry="86" /><g transform="translate(232.568659 104.070766) rotate(189.944078) scale(16.093725 31.023277)"><ellipse fill="#ff844c" fill-opacity=".501961" cx="0" cy="0" rx="1" ry="1" /></g><g transform="translate(119.918004 44.185111) rotate(300.326315) scale(40.411225 29.758060)"><ellipse fill="#ffc99e" fill-opacity=".501961" cx="0" cy="0" rx="1" ry="1" /></g><path d="M0 0h6240v4160H0z" fill="#e97c47" /><g transform="translate(235.317775 40.172807) rotate(-53.109708) scale(28.156901 67.578533)"><ellipse fill="#000" fill-opacity=".501961" cx="0" cy="0" rx="1" ry="1" /></g><ellipse fill="#090900" fill-opacity=".501961" cx="51" cy="11" rx="46" ry="46" /></g></svg>