<svg xmlns="http://www.w3.org/2000/svg" viewBox="0 0 4160 6240"><filter id="b"><feGaussianBlur stdDeviation="12" /></filter><path d="M0 0h4160v6240H0z" fill="#61553e" /><g filter="url(#b)" transform="scale(24.375000) translate(0.5 0.5)"><g transform="translate(154.063478 37.128775) rotate(308.092742) scale(41.413690 168.121212)"><ellipse fill="#000" fill-opacity=".501961" cx="0" cy="0" rx="1" ry="1" /></g><g transform="translate(5.355338 150.546348) rotate(110.209759) scale(51.592594 88.923477)"><ellipse fill="#c1a183" fill-opacity=".501961" cx="0" cy="0" rx="1" ry="1" /></g><g transform="translate(95.276710 75.467035) rotate(185.286359) scale(26.413525 32.510360)"><ellipse fill="#bda9a5" fill-opacity=".501961" cx="0" cy="0" rx="1" ry="1" /></g><g transform="translate(153.161731 79.608540) rotate(33.431335) scale(20.521263 51.654366)"><ellipse fill="#000" fill-opacity=".501961" cx="0" cy="0" rx="1" ry="1" /></g><ellipse fill="#3c3a0c" fill-opacity=".501961" cx="49" cy="55" rx="25" ry="90" /><g transform="translate(119.791824 142.586462) rotate(162.100590) scale(14.743374 21.620175)"><ellipse fill="#c4afa0" fill-opacity=".501961" cx="0" cy="0" rx="1" ry="1" /></g><path fill="#bacfd7" fill-opacity=".501961" d="M89 44l50 25L55 56z" /><g transform="translate(5.674992 161.249373) rotate(173.014744) scale(32.332447 43.883108)"><ellipse fill="#b5ae95" fill-opacity=".501961" cx="0" cy="0" rx="1" ry="1" /></g></g></svg>