<svg xmlns="http://www.w3.org/2000/svg" viewBox="0 0 6240 4160"><filter id="b"><feGaussianBlur stdDeviation="12" /></filter><path d="M0 0h6240v4160H0z" fill="#3d463e" /><g filter="url(#b)" transform="scale(24.375000) translate(0.5 0.5)"><ellipse fill="#d1d5d2" fill-opacity=".501961" cx="219" cy="105" rx="31" ry="100" /><g transform="translate(27.871103 86.257106) rotate(186.022430) scale(55.386502 106.138924)"><ellipse fill="#000" fill-opacity=".501961" cx="0" cy="0" rx="1" ry="1" /></g><path fill="#fffbff" fill-opacity=".501961" d="M181.846932 155.334592 183.083504 108.259004l22.46445 14.350482L231.653931 153.163918z" /><g transform="translate(148 87) rotate(268) scale(211 42)"><path d="M0 0h6240v4160H0z" fill="#170c00" /></g><ellipse fill="#1a1b1c" fill-opacity=".501961" cx="224" cy="169" rx="127" ry="16" /><ellipse fill="#77888d" fill-opacity=".501961" cx="103" cy="89" rx="13" ry="40" /><path d="M0 0h6240v4160H0z" fill="ivory" /><g transform="translate(90 161) rotate(-152) scale(22 27)"><path d="M0 0h6240v4160H0z" fill="#88b2d9" /></g></g></svg>