<svg xmlns="http://www.w3.org/2000/svg" viewBox="0 0 4160 6240"><filter id="b"><feGaussianBlur stdDeviation="12" /></filter><path d="M0 0h4160v6240H0z" fill="#3c2b23" /><g filter="url(#b)" transform="scale(24.375000) translate(0.5 0.5)"><path fill="#d3775f" fill-opacity=".501961" d="M185 271 57 235 73 52z" /><g transform="translate(140.318016 51.942990) rotate(205.607002) scale(169.000000 74.099868)"><ellipse fill="#00080a" fill-opacity=".501961" cx="0" cy="0" rx="1" ry="1" /></g><g transform="translate(82.259856 92.315955) rotate(18.599320) scale(11.125030 44.717900)"><ellipse fill="#ffa18a" fill-opacity=".501961" cx="0" cy="0" rx="1" ry="1" /></g><g transform="translate(3.673938 119.685500) rotate(193.164485) scale(30.321177 169.000000)"><ellipse fill="#00090a" fill-opacity=".501961" cx="0" cy="0" rx="1" ry="1" /></g><path d="M0 0h4160v6240H0z" fill="#d17964" /><g transform="translate(59.972777 225.019754) rotate(229.283001) scale(46.715716 11.525465)"><ellipse fill="#1d0a00" fill-opacity=".501961" cx="0" cy="0" rx="1" ry="1" /></g><path fill="#c1755d" fill-opacity=".501961" d="M84.41552 146.043313 101.316196 130.57641 148.473647 171.353979 157.902721 210.029779z" /><path fill="#000e0f" fill-opacity=".501961" d="M68-16 182 0l-7 239z" /></g></svg>