<svg xmlns="http://www.w3.org/2000/svg" viewBox="0 0 6240 4160"><filter id="b"><feGaussianBlur stdDeviation="12" /></filter><path d="M0 0h6240v4160H0z" fill="#86796d" /><g filter="url(#b)" transform="scale(24.375000) translate(0.5 0.5)"><g transform="translate(169.812081 83.470967) rotate(225.718807) scale(33.211098 53.129179)"><ellipse fill="#fff" fill-opacity=".501961" cx="0" cy="0" rx="1" ry="1" /></g><g transform="translate(88.405003 159.291359) rotate(62.203561) scale(48.551809 65.609043)"><ellipse fill="#561b00" fill-opacity=".501961" cx="0" cy="0" rx="1" ry="1" /></g><path fill="#000" fill-opacity=".501961" d="M115-1l20 79 32-58z" /><ellipse fill="#c9d0d2" fill-opacity=".501961" cx="60" cy="47" rx="25" ry="76" /><ellipse fill="#2b1d0a" fill-opacity=".501961" cx="248" cy="95" rx="19" ry="169" /><g transform="translate(11.310820 74.087344) rotate(39.245280) scale(16.751205 40.220339)"><ellipse fill="#1c1000" fill-opacity=".501961" cx="0" cy="0" rx="1" ry="1" /></g><g transform="translate(203.770864 15.107695) rotate(245.120080) scale(17.256138 34.424252)"><ellipse fill="#00221a" fill-opacity=".501961" cx="0" cy="0" rx="1" ry="1" /></g><g transform="translate(43.601178 113.373316) rotate(205.132438) scale(9.933986 36.926296)"><ellipse fill="#dee8f9" fill-opacity=".501961" cx="0" cy="0" rx="1" ry="1" /></g></g></svg>