<svg xmlns="http://www.w3.org/2000/svg" viewBox="0 0 4160 6240"><filter id="b"><feGaussianBlur stdDeviation="12" /></filter><path d="M0 0h4160v6240H0z" fill="#454a3f" /><g filter="url(#b)" transform="scale(24.375000) translate(0.5 0.5)"><g transform="translate(94.600321 95.214599) rotate(80.877338) scale(48.459961 32.842941)"><ellipse fill="#fffffe" fill-opacity=".501961" cx="0" cy="0" rx="1" ry="1" /></g><g transform="translate(106.967723 237.323083) rotate(79.411115) scale(85.592244 137.659544)"><ellipse fill="#000" fill-opacity=".501961" cx="0" cy="0" rx="1" ry="1" /></g><g transform="translate(10 104) rotate(269) scale(149 38)"><path d="M0 0h4160v6240H0z" fill="#cfdfd2" /></g><path fill="#ebffff" fill-opacity=".501961" d="M168.468502 52.716182 158.361749 136.337946 144.832426 138.121059 148.623541 64.804163z" /><g transform="translate(51.954133 0.000000) rotate(182.397816) scale(52.547237 42.531950)"><ellipse fill="#000" fill-opacity=".501961" cx="0" cy="0" rx="1" ry="1" /></g><g transform="translate(107.168954 103.298342) rotate(258.649686) scale(39.726333 18.867641)"><ellipse fill="#e9f7eb" fill-opacity=".501961" cx="0" cy="0" rx="1" ry="1" /></g><path fill="#c1b097" fill-opacity=".501961" d="M73 155l-45 6 48-58z" /><g transform="translate(91.342499 241.473393) rotate(172.950069) scale(169.000000 53.267572)"><ellipse fill="#000100" fill-opacity=".501961" cx="0" cy="0" rx="1" ry="1" /></g></g></svg>