<svg xmlns="http://www.w3.org/2000/svg" viewBox="0 0 4160 6240"><filter id="b"><feGaussianBlur stdDeviation="12" /></filter><path d="M0 0h4160v6240H0z" fill="#a07259" /><g filter="url(#b)" transform="scale(24.375000) translate(0.5 0.5)"><g transform="translate(149.405196 96.381850) rotate(197.251154) scale(37.654255 93.843354)"><ellipse fill="#ffffef" fill-opacity=".501961" cx="0" cy="0" rx="1" ry="1" /></g><g transform="translate(41.059940 26.412671) rotate(221.248654) scale(87.527895 45.134260)"><ellipse fill="#000" fill-opacity=".501961" cx="0" cy="0" rx="1" ry="1" /></g><g transform="translate(2.370395 220.567721) rotate(65.175970) scale(144.651245 41.764372)"><ellipse fill="#000100" fill-opacity=".501961" cx="0" cy="0" rx="1" ry="1" /></g><g transform="translate(94.212490 157.984292) rotate(100.905601) scale(55.475222 37.355195)"><ellipse fill="#ffab81" fill-opacity=".501961" cx="0" cy="0" rx="1" ry="1" /></g><path fill="#ffc494" fill-opacity=".501961" d="M52 88 25 163 3 52z" /><ellipse fill="#000" fill-opacity=".501961" cx="42" cy="152" rx="12" ry="19" /><g transform="translate(141.173572 20.585199) rotate(209.007654) scale(45.444684 12.553968)"><ellipse fill="#ffedcf" fill-opacity=".501961" cx="0" cy="0" rx="1" ry="1" /></g><path fill="#ffc38c" fill-opacity=".501961" d="M98 232l87-38-21 59z" /></g></svg>