<svg xmlns="http://www.w3.org/2000/svg" viewBox="0 0 3265 4898"><filter id="b"><feGaussianBlur stdDeviation="12" /></filter><path d="M0 0h3265v4898H0z" fill="#3c4334" /><g filter="url(#b)" transform="scale(19.132812) translate(0.5 0.5)"><g transform="translate(120.223313 8.310554) rotate(214.201952) scale(81.549820 19.183923)"><ellipse fill="#fff" fill-opacity=".501961" cx="0" cy="0" rx="1" ry="1" /></g><g transform="translate(23.505401 55.901518) rotate(-12.346536) scale(25.290484 21.545397)"><ellipse fill="#dbe4dc" fill-opacity=".501961" cx="0" cy="0" rx="1" ry="1" /></g><ellipse fill="#000" fill-opacity=".501961" cx="136" cy="227" rx="66" ry="66" /><g transform="translate(106.348662 49.859930) rotate(333.160682) scale(12.953413 14.232009)"><ellipse fill="#fffff2" fill-opacity=".501961" cx="0" cy="0" rx="1" ry="1" /></g><path fill="#eae0c7" fill-opacity=".501961" d="M73 121l31-23 39 34z" /><ellipse fill="#000800" fill-opacity=".501961" cx="20" cy="165" rx="57" ry="44" /><path fill="#fff" fill-opacity=".501961" d="M154.119334 11.343007 129.862776-16 116.78602 24.91322 153.315639 28.976827z" /><path fill="#fffcfa" fill-opacity=".501961" d="M54.202546 189.116366 56.889449 214.833337 74.127741 207.103721 75.430403 197.304z" /></g></svg>