<svg xmlns="http://www.w3.org/2000/svg" viewBox="0 0 4160 6240"><filter id="b"><feGaussianBlur stdDeviation="12" /></filter><path d="M0 0h4160v6240H0z" fill="#424439" /><g filter="url(#b)" transform="scale(24.375000) translate(0.5 0.5)"><g transform="translate(99.766609 143.883052) rotate(345.640830) scale(30.508463 46.865653)"><ellipse fill="#fff" fill-opacity=".501961" cx="0" cy="0" rx="1" ry="1" /></g><g transform="translate(26.710208 140.586832) rotate(175.493053) scale(17.156799 59.634888)"><ellipse fill="#ccddc8" fill-opacity=".501961" cx="0" cy="0" rx="1" ry="1" /></g><g transform="translate(106.002091 234.039022) rotate(258.955340) scale(35.740109 168.407485)"><ellipse fill="#000" fill-opacity=".501961" cx="0" cy="0" rx="1" ry="1" /></g><g transform="translate(91.577418 19.322077) rotate(77.053153) scale(55.960366 169.000000)"><ellipse fill="#030000" fill-opacity=".501961" cx="0" cy="0" rx="1" ry="1" /></g><g transform="translate(59.931249 37.168313) rotate(330.484875) scale(27.516245 12.441597)"><ellipse fill="#c6be99" fill-opacity=".501961" cx="0" cy="0" rx="1" ry="1" /></g><path d="M0 0h4160v6240H0z" fill="#d1ebdb" /><g transform="translate(112 64) rotate(-2) scale(28 56)"><path d="M0 0h4160v6240H0z" fill="#8ba9a6" /></g><path fill="#c9b6a5" fill-opacity=".501961" d="M79 162 28 202l55-1z" /></g></svg>