<svg xmlns="http://www.w3.org/2000/svg" viewBox="0 0 4160 6240"><filter id="b"><feGaussianBlur stdDeviation="12" /></filter><path d="M0 0h4160v6240H0z" fill="#585644" /><g filter="url(#b)" transform="scale(24.375000) translate(0.5 0.5)"><g transform="translate(75.948561 8.049558) rotate(350.635980) scale(23.304675 38.114359)"><ellipse fill="#fff" fill-opacity=".501961" cx="0" cy="0" rx="1" ry="1" /></g><path fill="#ffd8be" fill-opacity=".501961" d="M3 232l182-27-55-34z" /><ellipse fill="#02110e" fill-opacity=".501961" cx="83" cy="84" rx="169" ry="41" /><ellipse fill="#ffbea2" fill-opacity=".501961" cx="88" cy="141" rx="22" ry="23" /><path fill="#ffefdb" fill-opacity=".501961" d="M151 166l-27-19 60-8z" /><g transform="translate(145.987384 69.126719) rotate(109.565494) scale(90.853965 22.026644)"><ellipse fill="#000d08" fill-opacity=".501961" cx="0" cy="0" rx="1" ry="1" /></g><path fill="#898a7c" fill-opacity=".501961" d="M69 9l49 45-39 78z" /><g transform="translate(23.839233 16.598701) rotate(256.269839) scale(129.795333 27.821168)"><ellipse fill="#081810" fill-opacity=".501961" cx="0" cy="0" rx="1" ry="1" /></g></g></svg>