<svg xmlns="http://www.w3.org/2000/svg" viewBox="0 0 6240 4160"><filter id="b"><feGaussianBlur stdDeviation="12" /></filter><path d="M0 0h6240v4160H0z" fill="#485447" /><g filter="url(#b)" transform="scale(24.375000) translate(0.5 0.5)"><g transform="translate(20.245861 61.737874) rotate(289.704994) scale(40.141621 48.934666)"><ellipse fill="#fff" fill-opacity=".501961" cx="0" cy="0" rx="1" ry="1" /></g><ellipse fill="#090500" fill-opacity=".501961" cx="255" cy="143" rx="89" ry="89" /><path d="M0 0h6240v4160H0z" fill="#7cb79b" /><g transform="translate(112.329106 149.568917) rotate(156.723485) scale(58.267975 69.984493)"><ellipse fill="#0a0d08" fill-opacity=".501961" cx="0" cy="0" rx="1" ry="1" /></g><path d="M0 0h6240v4160H0z" fill="#000" /><g transform="translate(21.064407 43.453455) rotate(9.360295) scale(10.772211 59.443188)"><ellipse fill="#fff" fill-opacity=".501961" cx="0" cy="0" rx="1" ry="1" /></g><g transform="translate(246.556947 30.098988) rotate(89.964966) scale(166.926197 20.547852)"><ellipse fill="#050000" fill-opacity=".501961" cx="0" cy="0" rx="1" ry="1" /></g><ellipse fill="#e5d7b7" fill-opacity=".501961" cx="221" cy="50" rx="5" ry="54" /></g></svg>