<svg xmlns="http://www.w3.org/2000/svg" viewBox="0 0 4160 6240"><filter id="b"><feGaussianBlur stdDeviation="12" /></filter><path d="M0 0h4160v6240H0z" fill="#272315" /><g filter="url(#b)" transform="scale(24.375000) translate(0.5 0.5)"><g transform="translate(85.824570 107.798528) rotate(72.967923) scale(33.047627 26.611291)"><ellipse fill="#e6b285" fill-opacity=".501961" cx="0" cy="0" rx="1" ry="1" /></g><g transform="translate(94 19) rotate(173) scale(56 21)"><path d="M0 0h4160v6240H0z" fill="#b9a796" /></g><g transform="translate(72.376121 182.719374) rotate(89.116535) scale(12.226046 73.314661)"><ellipse fill="#7f6242" fill-opacity=".501961" cx="0" cy="0" rx="1" ry="1" /></g><g transform="translate(19.899544 85.080242) rotate(92.290824) scale(94.541277 46.434685)"><ellipse fill="#000400" fill-opacity=".501961" cx="0" cy="0" rx="1" ry="1" /></g><g transform="translate(158.719728 60.144900) rotate(187.730226) scale(45.760859 115.164953)"><ellipse fill="#000700" fill-opacity=".501961" cx="0" cy="0" rx="1" ry="1" /></g><ellipse fill="#d18d71" fill-opacity=".501961" cx="63" cy="196" rx="5" ry="32" /><g transform="translate(17.191963 238.121691) rotate(299.666336) scale(49.046470 35.313481)"><ellipse fill="#000" fill-opacity=".501961" cx="0" cy="0" rx="1" ry="1" /></g><path d="M0 0h4160v6240H0z" fill="#c79466" /></g></svg>