<svg xmlns="http://www.w3.org/2000/svg" viewBox="0 0 4160 6240"><filter id="b"><feGaussianBlur stdDeviation="12" /></filter><path d="M0 0h4160v6240H0z" fill="#35301b" /><g filter="url(#b)" transform="scale(24.375000) translate(0.5 0.5)"><g transform="translate(64.896247 107.880897) rotate(195.425656) scale(21.162477 52.197348)"><ellipse fill="#766961" fill-opacity=".501961" cx="0" cy="0" rx="1" ry="1" /></g><path fill="#000a00" fill-opacity=".501961" d="M64 2 185-4 163 199z" /><g transform="translate(15.755637 202.425123) rotate(104.523455) scale(17.655252 58.689449)"><ellipse fill="#967c59" fill-opacity=".501961" cx="0" cy="0" rx="1" ry="1" /></g><g transform="translate(121.118621 183.543608) rotate(87.721225) scale(20.358606 23.709835)"><ellipse fill="#ba6328" fill-opacity=".501961" cx="0" cy="0" rx="1" ry="1" /></g><g transform="translate(64.613148 39.017447) rotate(143.023316) scale(11.427994 17.399502)"><ellipse fill="#9f7c74" fill-opacity=".501961" cx="0" cy="0" rx="1" ry="1" /></g><g transform="translate(23.319772 88.429596) rotate(188.562195) scale(20.916272 79.676426)"><ellipse fill="#0a1600" fill-opacity=".501961" cx="0" cy="0" rx="1" ry="1" /></g><path d="M0 0h4160v6240H0z" fill="#756d64" /><g transform="translate(2 43) rotate(103) scale(102 13)"><path d="M0 0h4160v6240H0z" fill="#897758" /></g></g></svg>