<svg xmlns="http://www.w3.org/2000/svg" viewBox="0 0 6240 4160"><filter id="b"><feGaussianBlur stdDeviation="12" /></filter><path d="M0 0h6240v4160H0z" fill="#4b5145" /><g filter="url(#b)" transform="scale(24.375000) translate(0.5 0.5)"><g transform="translate(113.604881 75.602862) rotate(170.363633) scale(31.214540 48.026242)"><ellipse fill="#fff" fill-opacity=".501961" cx="0" cy="0" rx="1" ry="1" /></g><g transform="translate(246.933504 93.975685) rotate(287.867871) scale(171.196419 38.134369)"><ellipse fill="#000" fill-opacity=".501961" cx="0" cy="0" rx="1" ry="1" /></g><g transform="translate(188.352627 77.002850) rotate(103.295739) scale(46.005202 23.876998)"><ellipse fill="#e5f5e9" fill-opacity=".501961" cx="0" cy="0" rx="1" ry="1" /></g><g transform="translate(29.518222 56.833633) rotate(264.635718) scale(52.941113 18.911998)"><ellipse fill="#c5e7de" fill-opacity=".501961" cx="0" cy="0" rx="1" ry="1" /></g><ellipse fill="#000" fill-opacity=".501961" cx="64" cy="156" rx="255" ry="20" /><g transform="translate(7.001980 99.860641) rotate(-17.350688) scale(18.227889 147.932295)"><ellipse fill="#000" fill-opacity=".501961" cx="0" cy="0" rx="1" ry="1" /></g><path d="M0 0h6240v4160H0z" fill="#f5ffec" /><path fill="#d7c9b1" fill-opacity=".501961" d="M88 135l13-46-57 50z" /></g></svg>