<svg xmlns="http://www.w3.org/2000/svg" viewBox="0 0 4160 6240"><filter id="b"><feGaussianBlur stdDeviation="12" /></filter><path d="M0 0h4160v6240H0z" fill="#64564c" /><g filter="url(#b)" transform="scale(24.375000) translate(0.5 0.5)"><g transform="translate(20 239) rotate(294) scale(45 89)"><path d="M0 0h4160v6240H0z" fill="#fff" /></g><path fill="#fff" fill-opacity=".501961" d="M108 87 44 8 20 54z" /><g transform="translate(19.020402 146.612999) rotate(194.188124) scale(19.671069 51.146905)"><ellipse fill="#ffe2b9" fill-opacity=".501961" cx="0" cy="0" rx="1" ry="1" /></g><path fill="#000" fill-opacity=".501961" d="M149 218 160 93 16 71z" /><g transform="translate(118.269210 239.583629) rotate(297.072990) scale(28.656188 65.670987)"><ellipse fill="#000" fill-opacity=".501961" cx="0" cy="0" rx="1" ry="1" /></g><g transform="translate(12.840685 42.253499) rotate(182.088150) scale(14.748149 81.499266)"><ellipse fill="#000" fill-opacity=".501961" cx="0" cy="0" rx="1" ry="1" /></g><g transform="translate(143.195765 70.189757) rotate(-7.926721) scale(67.330860 13.873187)"><ellipse fill="#eacfbf" fill-opacity=".501961" cx="0" cy="0" rx="1" ry="1" /></g><ellipse fill="#ffd1a5" fill-opacity=".501961" cx="169" cy="189" rx="17" ry="41" /></g></svg>