<svg xmlns="http://www.w3.org/2000/svg" viewBox="0 0 3265 4898"><filter id="b"><feGaussianBlur stdDeviation="12" /></filter><path d="M0 0h3265v4898H0z" fill="#141d17" /><g filter="url(#b)" transform="scale(19.132812) translate(0.5 0.5)"><g transform="translate(76.581377 32.698332) rotate(57.317779) scale(30.753087 68.060406)"><ellipse fill="#2c4530" fill-opacity=".501961" cx="0" cy="0" rx="1" ry="1" /></g><path fill="#59694a" fill-opacity=".501961" d="M88 126 31 140l44 31z" /><ellipse fill="#000" fill-opacity=".501961" cx="169" cy="195" rx="68" ry="105" /><g transform="translate(30 198) rotate(183) scale(120 18)"><path d="M0 0h3265v4898H0z" fill="#4e4d5b" /></g><g transform="translate(128.917588 46.220857) rotate(321.445310) scale(14.528229 22.300239)"><ellipse fill="#395746" fill-opacity=".501961" cx="0" cy="0" rx="1" ry="1" /></g><path fill="#756c74" fill-opacity=".501961" d="M69.624974 198.23815l33.939273-14.083585L120.80409 178.290697 115.901079 187.209256z" /><g transform="translate(54 41) rotate(57) scale(13 7)"><path d="M0 0h3265v4898H0z" fill="#b7c5c7" /></g><ellipse fill="#010802" fill-opacity=".501961" cx="0" cy="51" rx="27" ry="103" /></g></svg>