<svg xmlns="http://www.w3.org/2000/svg" viewBox="0 0 6240 4160"><filter id="b"><feGaussianBlur stdDeviation="12" /></filter><path d="M0 0h6240v4160H0z" fill="#7b6e62" /><g filter="url(#b)" transform="scale(24.375000) translate(0.5 0.5)"><g transform="translate(73.649073 26.977996) rotate(146.717160) scale(87.583584 41.698162)"><ellipse fill="#fff" fill-opacity=".501961" cx="0" cy="0" rx="1" ry="1" /></g><g transform="translate(194.559988 51.801117) rotate(201.591040) scale(71.988520 33.305220)"><ellipse fill="#17261d" fill-opacity=".501961" cx="0" cy="0" rx="1" ry="1" /></g><g transform="translate(41.680076 156.325342) rotate(52.061211) scale(44.267449 105.686926)"><ellipse fill="#3c1e07" fill-opacity=".501961" cx="0" cy="0" rx="1" ry="1" /></g><path fill="#fff0e4" fill-opacity=".501961" d="M194 45 137 72l66-4z" /><ellipse fill="#5c1500" fill-opacity=".501961" cx="252" cy="117" rx="15" ry="69" /><g transform="translate(52.907997 82.791335) rotate(-25.734906) scale(92.246489 20.385341)"><ellipse fill="#c48a70" fill-opacity=".501961" cx="0" cy="0" rx="1" ry="1" /></g><path fill="#e6e5eb" fill-opacity=".501961" d="M149 66 20 23 76-16z" /><g transform="translate(216 44) rotate(264) scale(79 28)"><path d="M0 0h6240v4160H0z" fill="#001810" /></g></g></svg>