<svg xmlns="http://www.w3.org/2000/svg" viewBox="0 0 4160 6240"><filter id="b"><feGaussianBlur stdDeviation="12" /></filter><path d="M0 0h4160v6240H0z" fill="#545237" /><g filter="url(#b)" transform="scale(24.375000) translate(0.5 0.5)"><g transform="translate(91.556077 255.000000) rotate(84.824493) scale(34.654164 169.000000)"><ellipse fill="#ffdcb3" fill-opacity=".501961" cx="0" cy="0" rx="1" ry="1" /></g><path fill="#ffd6ac" fill-opacity=".501961" d="M65 156l60-26-37-27z" /><g transform="translate(147.840138 76.605980) rotate(184.043919) scale(48.672000 96.941419)"><ellipse fill="#071b05" fill-opacity=".501961" cx="0" cy="0" rx="1" ry="1" /></g><g transform="translate(20.796354 96.683659) rotate(114.607245) scale(70.901854 50.491527)"><ellipse fill="#142b0c" fill-opacity=".501961" cx="0" cy="0" rx="1" ry="1" /></g><path fill="#0d1313" fill-opacity=".501961" d="M83 143l38 58-84 39z" /><g transform="translate(14.850213 190.148044) rotate(254.781059) scale(16.347447 43.533928)"><ellipse fill="#b59b79" fill-opacity=".501961" cx="0" cy="0" rx="1" ry="1" /></g><g transform="translate(98.206559 125.648532) rotate(-28.685630) scale(19.889183 22.161528)"><ellipse fill="#dca985" fill-opacity=".501961" cx="0" cy="0" rx="1" ry="1" /></g><path fill="#ceb088" fill-opacity=".501961" d="M159 248l-49-70 23-3z" /></g></svg>