<svg xmlns="http://www.w3.org/2000/svg" viewBox="0 0 5184 3456"><filter id="b"><feGaussianBlur stdDeviation="12" /></filter><path d="M0 0h5184v3456H0z" fill="#3d3e34" /><g filter="url(#b)" transform="scale(20.250000) translate(0.5 0.5)"><g transform="translate(137.279613 101.594314) rotate(245.484622) scale(21.229205 69.109067)"><ellipse fill="#f6c7a8" fill-opacity=".501961" cx="0" cy="0" rx="1" ry="1" /></g><ellipse fill="#fff" fill-opacity=".501961" cx="253" cy="149" rx="15" ry="66" /><ellipse fill="#ffc8ae" fill-opacity=".501961" cx="164" cy="55" rx="16" ry="40" /><g transform="translate(72.158901 20.852893) rotate(356.485836) scale(81.186779 41.508022)"><ellipse fill="#000" fill-opacity=".501961" cx="0" cy="0" rx="1" ry="1" /></g><g transform="translate(141 152) rotate(266) scale(37 23)"><path d="M0 0h5184v3456H0z" fill="#ffffe0" /></g><path fill="#edc5b0" fill-opacity=".501961" d="M3 68l88 69L32 53z" /><g transform="translate(69.132778 150.894452) rotate(202.391907) scale(56.907052 26.164002)"><ellipse fill="#000" fill-opacity=".501961" cx="0" cy="0" rx="1" ry="1" /></g><g transform="translate(141 81) rotate(45) scale(23 40)"><path d="M0 0h5184v3456H0z" fill="#000003" /></g></g></svg>