<svg xmlns="http://www.w3.org/2000/svg" viewBox="0 0 3456 5184"><filter id="b"><feGaussianBlur stdDeviation="12" /></filter><path d="M0 0h3456v5184H0z" fill="#232b26" /><g filter="url(#b)" transform="scale(20.250000) translate(0.5 0.5)"><ellipse fill="#f1ab8b" fill-opacity=".501961" cx="80" cy="84" rx="36" ry="36" /><g transform="translate(29.479113 169.030190) rotate(328.292118) scale(33.454898 17.945067)"><ellipse fill="#828793" fill-opacity=".501961" cx="0" cy="0" rx="1" ry="1" /></g><g transform="translate(87.273602 19.227689) rotate(-85.012641) scale(32.761860 153.313485)"><ellipse fill="#000" fill-opacity=".501961" cx="0" cy="0" rx="1" ry="1" /></g><g transform="translate(147 164) rotate(21) scale(71 26)"><path d="M0 0h3456v5184H0z" fill="#8c8f97" /></g><ellipse fill="#000" fill-opacity=".501961" cx="86" cy="139" rx="22" ry="32" /><path d="M0 0h3456v5184H0z" fill="#ebc0b1" /><ellipse fill="#000900" fill-opacity=".501961" cx="16" cy="90" rx="24" ry="65" /><g transform="translate(135.724536 70.545383) rotate(246.815179) scale(15.126468 47.667336)"><ellipse fill="#020900" fill-opacity=".501961" cx="0" cy="0" rx="1" ry="1" /></g></g></svg>