<svg xmlns="http://www.w3.org/2000/svg" viewBox="0 0 4160 6240"><filter id="b"><feGaussianBlur stdDeviation="12" /></filter><path d="M0 0h4160v6240H0z" fill="#a07259" /><g filter="url(#b)" transform="scale(24.375000) translate(0.5 0.5)"><g transform="translate(161.888220 93.594217) rotate(114.253695) scale(95.039939 51.139278)"><ellipse fill="#ffffea" fill-opacity=".501961" cx="0" cy="0" rx="1" ry="1" /></g><g transform="translate(49.481397 39.828809) rotate(218.666529) scale(69.949493 38.024563)"><ellipse fill="#000" fill-opacity=".501961" cx="0" cy="0" rx="1" ry="1" /></g><path fill="#000100" fill-opacity=".501961" d="M4 266-16 97 69 258z" /><g transform="translate(87.904921 159.048094) rotate(362.652273) scale(30.397391 52.380218)"><ellipse fill="#ffac81" fill-opacity=".501961" cx="0" cy="0" rx="1" ry="1" /></g><path fill="#ffe9d0" fill-opacity=".501961" d="M111.636157-3.369786 167.330914 139.258194 185 26.240667 161.798152 14.433915z" /><g transform="translate(43 153) rotate(341) scale(23 29)"><path d="M0 0h4160v6240H0z" fill="#000" /></g><g transform="translate(24.620879 102.283120) rotate(249.879737) scale(39.723739 20.611587)"><ellipse fill="#ffb382" fill-opacity=".501961" cx="0" cy="0" rx="1" ry="1" /></g><g transform="translate(166.497314 230.304049) rotate(90.047085) scale(19.426513 60.660666)"><ellipse fill="#ffbf89" fill-opacity=".501961" cx="0" cy="0" rx="1" ry="1" /></g></g></svg>