<svg xmlns="http://www.w3.org/2000/svg" viewBox="0 0 6240 4160"><filter id="b"><feGaussianBlur stdDeviation="12" /></filter><path d="M0 0h6240v4160H0z" fill="#382f20" /><g filter="url(#b)" transform="scale(24.375000) translate(0.5 0.5)"><ellipse fill="#ffdc9e" fill-opacity=".501961" cx="118" cy="88" rx="29" ry="60" /><g transform="translate(21.537124 68.267856) rotate(446.393915) scale(201.556347 48.246935)"><ellipse fill="#000" fill-opacity=".501961" cx="0" cy="0" rx="1" ry="1" /></g><ellipse fill="#ffc6a4" fill-opacity=".501961" cx="112" cy="69" rx="20" ry="36" /><g transform="translate(182.401576 90.856496) rotate(187.425091) scale(10.961139 17.578896)"><ellipse fill="#ff9461" fill-opacity=".501961" cx="0" cy="0" rx="1" ry="1" /></g><g transform="translate(228.495483 110.471326) rotate(-12.963835) scale(30.846611 137.646749)"><ellipse fill="#000f0b" fill-opacity=".501961" cx="0" cy="0" rx="1" ry="1" /></g><path fill="#ffc488" fill-opacity=".501961" d="M156.314742 185H108.66601L166.443063 148.513103 176.399797 131.268982z" /><path fill="#8dccf7" fill-opacity=".501961" d="M147.994221 10.287325 187.075774 22.631877 195.823808 14.78915 175.928364 5.950589z" /><ellipse fill="#a79461" fill-opacity=".501961" cx="80" cy="56" rx="9" ry="44" /></g></svg>