<svg xmlns="http://www.w3.org/2000/svg" viewBox="0 0 4174 4147"><filter id="b"><feGaussianBlur stdDeviation="12" /></filter><path d="M0 0h4174v4147H0z" fill="#473725" /><g filter="url(#b)" transform="scale(16.304688) translate(0.5 0.5)"><ellipse fill="#ffda9e" fill-opacity=".501961" cx="124" cy="131" rx="41" ry="90" /><ellipse fill="#000" fill-opacity=".501961" cx="22" cy="157" rx="33" ry="253" /><g transform="translate(224.388767 73.642485) rotate(299.617314) scale(29.630149 181.326523)"><ellipse fill="#000" fill-opacity=".501961" cx="0" cy="0" rx="1" ry="1" /></g><g transform="translate(122.408635 79.000197) rotate(241.274439) scale(24.891303 50.940836)"><ellipse fill="#ffc6a1" fill-opacity=".501961" cx="0" cy="0" rx="1" ry="1" /></g><g transform="translate(219.208744 131.814644) rotate(6.231569) scale(17.066725 27.794702)"><ellipse fill="#ff8959" fill-opacity=".501961" cx="0" cy="0" rx="1" ry="1" /></g><g transform="translate(168.761776 253.000000) rotate(47.362766) scale(11.930035 42.029215)"><ellipse fill="#ffc388" fill-opacity=".501961" cx="0" cy="0" rx="1" ry="1" /></g><g transform="translate(242.581222 182.711342) rotate(159.670192) scale(68.905638 29.911559)"><ellipse fill="#000" fill-opacity=".501961" cx="0" cy="0" rx="1" ry="1" /></g><path fill="#83ccfd" fill-opacity=".501961" d="M216.12354 6.06594 232.461866 32.056162 179.704161 21.117921 188.158404 7.993928z" /></g></svg>